<?xml version="1.0" ?><svg height="60px" version="1.1" viewBox="0 0 54 60" width="54px" xmlns="http://www.w3.org/2000/svg" xmlns:xlink="http://www.w3.org/1999/xlink"><title/><desc/><g fill="none" fill-rule="evenodd" id="Page-1" stroke="none" stroke-width="1"><g id="006---santa,-christmas,-emoji,-crying,-sad"><path d="M27.789,-1.55679054e-05 C39.2032385,-0.0133619722 48.7935279,8.57625029 50.033,19.923 C50.4400031,23.5311119 50.6573022,27.1581034 50.684,30.789 L45.158,30.789 L27.789,-1.55679054e-05 Z" fill="#D94452" id="Path"/><path d="M47.58,26.9 C47.5397403,26.8983562 47.4994323,26.9017152 47.46,26.91 C47.3148216,26.9303861 47.171168,26.9604531 47.03,27 C46.8842276,27.0306801 46.740594,27.0707639 46.6,27.12 C46.4529791,27.1628438 46.3092671,27.216318 46.17,27.28 C46.14,27.29 46.12,27.3 46.09,27.31 C45.3749755,25.4374635 44.4022716,23.6738067 43.2,22.07 C44.3311572,21.8700857 45.1567152,20.8886825 45.16,19.74 L45.16,16.58 C45.1602654,15.9513556 44.9106549,15.3483826 44.4661362,14.9038638 C44.0216174,14.4593451 43.4186444,14.2097346 42.79,14.21 L41.95,14.21 C41.3721277,6.6532782 35.3754792,0.64389795 27.82,0.05 L27.79,0 L27.89,0 C28.21,0 28.53,0.01 28.86,0.02 C29.46,0.05 30.06,0.11 30.66,0.19 C37.6971104,1.30429067 43.0476549,7.10588656 43.59,14.21 L44.44,14.21 C45.0686444,14.2097346 45.6716174,14.4593451 46.1161362,14.9038638 C46.5606549,15.3483826 46.8102654,15.9513556 46.81,16.58 L46.81,19.74 C46.8096134,20.8877424 45.9815517,21.867897 44.85,22.06 C45.9636052,23.5497069 46.8811219,25.1763665 47.58,26.9 Z" fill="#C93A4C" id="Path"/><circle cx="48.316" cy="32.368" fill="#E4E8EB" id="Oval" r="5.526"/><path d="M49.689,35.282 C49.6883247,36.107464 49.6435944,36.9323038 49.555,37.753 C49.1489212,37.8483192 48.7331148,37.8959742 48.316,37.895 C48.0191672,37.8966727 47.7228434,37.8702212 47.431,37.816 C47.5265145,36.9747237 47.573925,36.1286806 47.573,35.282 C47.5787068,32.5548251 47.0754252,29.8505344 46.089,27.308 C46.7023334,27.0373864 47.3611527,26.8847248 48.031,26.858 C49.1283643,29.5308183 49.6916323,32.3926819 49.689,35.282 Z" fill="#D1D8DB" id="Path"/><path d="M47.571,35.285 C47.5794185,41.1575471 45.2486969,46.7916537 41.094,50.942 C41.094,50.9464183 41.0904183,50.95 41.086,50.95 C35.0754637,56.9575044 26.1579847,58.9970279 18.1336321,56.1994537 C10.1092795,53.4018794 4.39263125,46.2603796 3.41976351,37.8182125 C2.44689578,29.3760455 6.38931118,21.1214438 13.567,16.572 L13.575,16.564 C20.3994229,12.2472845 29.0319339,11.9852713 36.1055944,15.8801536 C43.1792548,19.7750359 47.5737137,27.2099286 47.575,35.285 L47.571,35.285 Z" fill="#FDCD56" id="Path"/><path d="M41.086,50.95 C35.0754637,56.9575044 26.1579847,58.9970279 18.1336321,56.1994537 C10.1092795,53.4018794 4.39263125,46.2603796 3.41976351,37.8182125 C2.44689578,29.3760455 6.38931118,21.1214438 13.567,16.572 C5.59615455,24.5582569 4.90073471,37.2592592 11.9519999,46.0680239 C19.0032651,54.8767886 31.5483799,56.9789699 41.086,50.95 Z" fill="#F5B945" id="Path"/><path d="M25.143,-6.93753547e-16 L26.6,-6.93753547e-16 C30.6847406,-0.00132686077 34.6025618,1.62074239 37.4909097,4.50909029 C40.3792576,7.3974382 42.0013269,11.3152594 42,15.4 L42.0000008,19.742 L8.842,19.742 L8.842,16.3 C8.84199999,11.9767979 10.5594538,7.83067762 13.616513,4.7738059 C16.6735723,1.71693418 20.819798,-0.00026522712 25.143,-6.93753547e-16 Z" fill="#EB5463" id="Path"/><path d="M27.845,0.055 C19.3502213,0.698931299 12.7870759,7.78085079 12.79,16.3 L12.79,19.734 L8.842,19.734 L8.842,16.3 C8.84199993,11.9764514 10.5597282,7.8300279 13.6172201,4.77309868 C16.6747119,1.71616946 20.8214515,-0.000795745144 25.145,8.8817842e-16 L26.605,8.8817842e-16 C27.024,8.8817842e-16 27.442,0.016 27.845,0.055 Z" fill="#D94452" id="Path"/><rect fill="#E4E8EB" height="7.895" id="Rectangle" rx="2.368" width="39.474" x="5.684" y="14.211"/><path d="M10.421,22.1050034 L8.053,22.105 C7.42455007,22.1060634 6.82151927,21.8569519 6.37704362,21.4126639 C5.93256798,20.9683759 5.68320191,20.3654503 5.684,19.737 L5.684,16.579 C5.68320191,15.9505497 5.93256798,15.3476241 6.37704362,14.9033361 C6.82151927,14.4590481 7.42455007,14.2099366 8.053,14.211 L10.421,14.2109966 C9.79272322,14.2102025 9.18994969,14.4594314 8.74569056,14.9036906 C8.30143142,15.3479497 8.05220252,15.9507232 8.053,16.579 L8.053,19.737 C8.05220252,20.3652768 8.30143142,20.9680503 8.74569056,21.4123094 C9.18994969,21.8565686 9.79272322,22.1057975 10.421,22.1050034 Z" fill="#CAD0D7" id="Path"/><path d="M48.95,44.84 C49.56,47.37 48.28,50.87 45.47,53.67 C42.62,56.52 39.05,57.79 36.52,57.11 C34.38,58.83 30.21,60 25.42,60 C21.05,60 17.2,59.03 14.94,57.55 C14.7244654,57.4162472 14.517404,57.2693004 14.32,57.11 C12.8234476,57.4405271 11.260363,57.2828167 9.86,56.66 C8.17096949,55.9877913 6.6414641,54.9692566 5.37,53.67 C2.57,50.87 1.29,47.37 1.89,44.84 C0.182519644,43.1316 -0.315377027,40.5569727 0.632053664,38.3351503 C1.57948436,36.1133279 3.78208537,34.6902482 6.19697114,34.7397098 C8.6118569,34.7891713 10.7543402,36.3012468 11.61,38.56 C11.7221462,38.8349044 11.8091682,39.1193994 11.87,39.41 C13.3379953,40.0447438 14.679469,40.9390597 15.83,42.05 C15.92,42.14 16.02,42.23 16.11,42.32 C16.5953284,42.8048019 17.0464129,43.3227137 17.46,43.87 C19.24,45.65 22.4,45.79 25.42,45.79 C28.44,45.79 31.6,45.65 33.39,43.87 C33.800072,43.3227955 34.247826,42.8048711 34.73,42.32 C35.9451551,41.0842909 37.3884812,40.0960371 38.98,39.41 C39.5122065,36.9440268 41.5493859,35.0866883 44.0539124,34.7840094 C46.5584389,34.4813305 48.9794339,35.7998865 50.0837771,38.0680782 C51.1881204,40.3362699 50.732908,43.0552013 48.95,44.84 Z" fill="#F4F6F8" id="Path"/><path d="M47.053,50.589 C47.6385324,50.007141 48.171909,49.375053 48.647,48.7 C47.9874706,50.5804124 46.9014327,52.2825448 45.474,53.673 C42.624,56.523 39.047,57.802 36.521,57.115 C34.382,58.831 30.213,60 25.421,60 C20.629,60 16.461,58.831 14.321,57.11 C11.795,57.797 8.221,56.518 5.369,53.668 C2.569,50.868 1.287,47.368 1.895,44.842 C-0.397548265,42.5603196 -0.425648554,38.8582181 1.832,36.542 C1.76806675,36.8829373 1.73626072,37.2291208 1.737,37.576 C1.73393727,39.1466856 2.35941626,40.6533086 3.474,41.76 C2.866,44.286 4.145,47.784 6.947,50.586 C9.797,53.436 13.374,54.715 15.9,54.028 C18.04,55.75 22.208,56.918 27,56.918 C31.792,56.918 35.961,55.75 38.1,54.028 C40.626,54.718 44.2,53.439 47.053,50.589 Z" fill="#E4E8EB" id="Path"/><path d="M13,27 C12.4477153,27 12,26.5522847 12,26 C12,25.4477153 12.4477153,25 13,25 C15.4693992,24.9973198 17.9028494,24.4081507 20.1,23.281 L20.432,23.11 C20.9235334,22.8576059 21.5266059,23.0514666 21.779,23.543 C22.0313941,24.0345334 21.8375334,24.6376059 21.346,24.89 L21.015,25.06 C18.5346683,26.3322756 15.7876016,26.9971925 13,27 Z" fill="#E4E8EB" id="Path"/><path d="M39,27 C36.2123169,26.9968831 33.4652458,26.3316223 30.985,25.059 L30.655,24.89 C30.3370336,24.7267296 30.1303243,24.4062285 30.1127374,24.0492264 C30.0951505,23.6922242 30.2693579,23.3529582 30.5697374,23.1592264 C30.8701169,22.9654946 31.2510336,22.9467296 31.569,23.11 L31.9,23.28 C34.0969977,24.4076776 36.5304964,24.9972012 39,25 C39.5522847,25 40,25.4477153 40,26 C40,26.5522847 39.5522847,27 39,27 Z" fill="#E4E8EB" id="Path"/><path d="M28,2.2 C28,2.2 34.2,5.16 35.852,8 C35.5497226,6.48773222 34.8266597,5.09152065 33.766,3.972 C31.9,1.842 28,2.2 28,2.2 Z" fill="#F77286" id="Path"/><ellipse cx="25.5" cy="41.763" fill="#424852" id="Oval" rx="2.5" ry="3.5"/><path d="M27.125,41.753 L30.617,42.732 C33.7804075,43.5772676 37.1288014,42.2939856 38.917,39.551 L39.08,39.314 C40.2147458,37.6128211 40.6542277,35.5413868 40.308,33.526 C39.3898,34.4127595 38.2752456,35.0702541 37.055,35.445 C35.85234,35.8194212 34.5756764,35.8901943 33.339,35.651 L29.098,34.851 C27.2114181,34.3593578 25.2818951,35.4833865 24.779,37.367 C24.5036812,38.259727 24.5966867,39.2254731 25.0373124,40.0492515 C25.4779381,40.87303 26.2296111,41.4864655 27.125,41.753 Z" fill="#F4F6F8" id="Path"/><path d="M25.005,39.968 C25.42167,40.8418634 26.1963093,41.4925021 27.129,41.752 L30.618,42.731 C33.7818358,43.5800259 37.1325715,42.2954426 38.918,39.549 L39.084,39.312 C40.2182828,37.6114046 40.6564244,35.5402548 40.308,33.526 C39.8243326,33.9861043 39.2891159,34.3887752 38.713,34.726 C38.5228384,35.80228 38.1096581,36.8268853 37.5,37.734 L37.335,37.97 C35.5491554,40.7159283 32.1988014,42.0003652 29.035,41.152 L25.546,40.173 C25.3598176,40.1212309 25.1787365,40.0526142 25.005,39.968 Z" fill="#E4E8EB" id="Path"/><path d="M23.715,41.753 L20.223,42.732 C17.0596098,43.5769388 13.7114056,42.2937295 11.923,39.551 L11.761,39.314 C10.6259064,37.6129604 10.1860643,35.5415153 10.532,33.526 C11.4502,34.4127595 12.5647544,35.0702541 13.785,35.445 C14.9876675,35.81938 16.2643208,35.8901525 17.501,35.651 L21.742,34.851 C23.6285819,34.3593578 25.5581049,35.4833865 26.061,37.367 C26.3363188,38.259727 26.2433133,39.2254731 25.8026876,40.0492515 C25.3620619,40.87303 24.6103889,41.4864655 23.715,41.753 Z" fill="#F4F6F8" id="Path"/><path d="M25.838,39.968 C25.42133,40.8418634 24.6466907,41.4925021 23.714,41.752 L20.225,42.731 C17.0611986,43.5793652 13.7108446,42.2949283 11.925,39.549 L11.76,39.312 C10.6257172,37.6114046 10.1875756,35.5402548 10.536,33.526 C11.01947,33.9863374 11.5547149,34.3890294 12.131,34.726 C12.3196417,35.8018947 12.7311085,36.8264742 13.339,37.734 L13.504,37.97 C15.2898446,40.7159283 18.6401986,42.0003652 21.804,41.152 L25.293,40.173 C25.4805485,40.1214616 25.6629783,40.0528412 25.838,39.968 Z" fill="#E4E8EB" id="Path"/><path d="M15.83,42.05 C15.0336909,47.1758245 14.7356332,52.3667174 14.94,57.55 C14.7244654,57.4162472 14.517404,57.2693004 14.32,57.11 C12.8234476,57.4405271 11.260363,57.2828167 9.86,56.66 C9.77042336,50.580443 10.3573654,44.5097852 11.61,38.56 C12.1880825,35.6532207 12.9768301,32.7923393 13.97,30 L19,29 C17.5228032,33.2369567 16.46114,37.607526 15.83,42.05 Z" fill="#5E9CEA" id="Path"/><path d="M19,29 C19,29 18.87,29.32 18.67,29.94 L14.69,30.73 C13.6950247,33.5217698 12.9062402,36.3827845 12.33,39.29 C11.1139911,45.0865771 10.5272591,50.9974835 10.58,56.92 C10.34,56.84 10.1,56.76 9.86,56.66 C9.77042336,50.580443 10.3573654,44.5097852 11.61,38.56 C12.1880825,35.6532207 12.9768301,32.7923393 13.97,30 L19,29 Z" fill="#4D8FD6" id="Path"/><path d="M12.973,31.766 C12.5032666,31.767352 12.0959095,31.4415812 11.9939587,30.983043 C11.8920079,30.5245048 12.1229481,30.0568157 12.549,29.859 C15.076606,28.6843648 17.8466993,28.1257539 20.632,28.229 L21.003,28.243 C21.5546632,28.2641375 21.9848313,28.7283251 21.964,29.28 C21.9260407,29.8239258 21.472241,30.2449049 20.927,30.242 L20.556,30.228 C18.0900315,30.1365781 15.6375516,30.6314608 13.4,31.672 C13.2662269,31.7341039 13.1204859,31.7661874 12.973,31.766 Z" fill="#424852" id="Path"/><path d="M14.69,35.011 C14.209,36.883 14.473,39.085 14.769,39.161 C15.065,39.237 15.283,37.161 15.769,35.287 C16.255,33.413 16.812,32.457 16.515,32.381 C16.218,32.305 15.171,33.139 14.69,35.011 Z" fill="#73B0F4" id="Path"/><ellipse cx="13.999302" cy="43.9789301" fill="#73B0F4" id="Oval" rx="1" ry="1" transform="translate(13.999302, 43.978930) rotate(-76.492000) translate(-13.999302, -43.978930) "/><path d="M35.01,42.05 C35.8063091,47.1758245 36.1043668,52.3667174 35.9,57.55 C36.1155346,57.4162472 36.322596,57.2693004 36.52,57.11 C38.0165524,57.4405271 39.579637,57.2828167 40.98,56.66 C41.0695766,50.580443 40.4826346,44.5097852 39.23,38.56 C38.6519175,35.6532207 37.8631699,32.7923393 36.87,30 L31.84,29 C33.3171968,33.2369567 34.37886,37.607526 35.01,42.05 Z" fill="#5E9CEA" id="Path"/><path d="M35.88,42.05 C36.6594454,47.0499865 36.9608066,52.1128556 36.78,57.17 L36.52,57.11 C36.322596,57.2693004 36.1155346,57.4162472 35.9,57.55 C36.1043668,52.3667174 35.8063091,47.1758245 35.01,42.05 C34.37886,37.607526 33.3171968,33.2369567 31.84,29 L32.78,29.19 C34.2108285,33.3709867 35.2486547,37.6762918 35.88,42.05 Z" fill="#4D8FD6" id="Path"/><path d="M37.771,35.011 C38.252,36.883 37.988,39.085 37.691,39.161 C37.394,39.237 37.177,37.161 36.691,35.287 C36.205,33.413 35.648,32.457 35.945,32.381 C36.242,32.305 37.29,33.139 37.771,35.011 Z" fill="#73B0F4" id="Path"/><ellipse cx="38.460742" cy="43.9789156" fill="#73B0F4" id="Oval" rx="1" ry="1" transform="translate(38.460742, 43.978916) rotate(-13.508000) translate(-38.460742, -43.978916) "/><path d="M39.007,31.859 C38.853254,31.86049 38.7012623,31.8262576 38.563,31.759 C36.3515281,30.6593732 33.9084436,30.1065584 31.439,30.147 L31.067,30.147 C30.517902,30.1477518 30.0681769,29.7108887 30.053,29.162 C30.0489918,28.8967748 30.1505235,28.6408234 30.3352532,28.4504674 C30.5199829,28.2601114 30.7727739,28.1509485 31.038,28.147 L31.41,28.147 C34.1961939,28.1156124 36.9508168,28.7390163 39.452,29.967 C39.8731081,30.1709015 40.0965435,30.6395335 39.9898493,31.0950818 C39.8831551,31.5506301 39.4748561,31.8713033 39.007,31.867 L39.007,31.859 Z" fill="#424852" id="Path"/></g></g></svg>