<?xml version="1.0" ?><svg xmlns="http://www.w3.org/2000/svg" xmlns:xlink="http://www.w3.org/1999/xlink" id="Layer_1" style="enable-background:new 0 0 79.186302 73.667969;" version="1.1" viewBox="0 0 79.186302 73.667969" xml:space="preserve"><style type="text/css">
	.st0{opacity:0.5;fill:#231F20;enable-background:new    ;}
	.st1{fill:#FFFFFF;}
	.st2{fill:#22093A;stroke:#22093A;stroke-linecap:round;stroke-linejoin:round;}
	.st3{fill:#9736FF;stroke:#22093A;stroke-linecap:round;stroke-linejoin:round;}
	.st4{fill:#FCC707;stroke:#22093A;stroke-linecap:round;stroke-linejoin:round;}
	.st5{fill:#FFFFFF;stroke:#22093A;stroke-linecap:round;stroke-linejoin:round;}
	.st6{fill:none;stroke:#22093A;stroke-linecap:round;stroke-linejoin:round;}
	.st7{fill:none;stroke:#D9BBFF;stroke-linecap:round;stroke-linejoin:round;}
</style><g id="Layer_2_00000176022387333630881810000015918496233939814560_"><g id="Layer_1-2"><path class="st0" d="M78.838699,29.474119c0.769531-8.46924,0.299797-12.345701-1.79493-14.814    c-0.939682-1.10501-2.216415-1.870648-3.633766-2.179119c-1.60688-1.356162-3.676064-2.038191-5.774406-1.90332    c-4.920288,0-7.665829,3.35131-9.280579,7.553519c-1.183819-1.6441-2.882515-2.846051-4.826839-3.41534    c-1.438114-1.193507-3.232708-1.874166-5.10059-1.93457c-1.829102-0.03662-5.89941,0.49121-8.87109,5.460939    c-0.177742-0.078135-0.357101-0.153494-0.53809-0.22608c-1.078144-0.693251-2.224018-1.275019-3.419922-1.73632    c1.784184-6.151959-1.756599-12.585474-7.908558-14.369657c-1.04751-0.303797-2.132637-0.45832-3.22331-0.459001    c-0.05126,0-0.101561,0.001-0.15283,0.00293l-0.17334-0.00293c-6.310925-0.003697-11.429935,5.109321-11.433631,11.420244    c-0.000802,1.368711,0.244302,2.726431,0.723631,4.008465h-0.03174c-2.463102,0.00823-4.82128,0.998144-6.55224,2.75049    C3.0467,23.310061,1.15754,30.22949,1.07014,40.783199C0.98469,51.11816,3.8675,57.26025,9.64,59.059078    c4.07032,3.143559,9.083999,2.05127,11.565921,1.509281l0.554689-0.119141c2.560448-0.52227,5.029335-1.4212,7.32617-2.66748    c0.8283,0.222847,1.673128,0.378944,2.526371,0.466801c-0.093788,0.623692-0.140471,1.253563-0.13965,1.88427    c-0.132572,7.341511,5.711428,13.400455,13.052938,13.533024c0.081944,0.00148,0.163895,0.002205,0.24585,0.002167    c0.415001-0.000488,0.834999-0.019531,1.256828-0.059082c7.330093-0.700401,12.704517-7.210411,12.004112-14.540504    c-0.094612-0.990166-0.299732-1.966637-0.61153-2.911182c1.802128-0.432144,3.555374-1.047318,5.232422-1.835941    c3.942276,2.511036,9.173714,1.350788,11.684746-2.591484c1.840042-2.888824,1.757477-6.601898-0.20916-9.406075    c-0.17498-0.246426-0.363297-0.483109-0.564087-0.709C76.023628,39.670841,78.23909,36.07275,78.838699,29.474119z"/><path class="st1" d="M77.770401,28.023001c0.769531-8.46924,0.299797-12.3457-1.794922-14.814    c-0.939682-1.105036-2.216423-1.870699-3.633789-2.17919c-1.60688-1.356172-3.676071-2.038204-5.774422-1.90333    c-4.92028,0-7.665829,3.35132-9.280571,7.553531c-1.183823-1.644099-2.882523-2.846049-4.826851-3.41534    c-1.43811-1.193511-3.232697-1.87417-5.100578-1.93457c-1.829102-0.03662-5.899422,0.49121-8.871101,5.460939    c-0.177727-0.078127-0.357086-0.153486-0.538078-0.22608c-1.078144-0.693252-2.224018-1.275023-3.419922-1.73633    c1.784157-6.151978-1.75666-12.585487-7.90864-14.369644C25.574053,0.155205,24.488966,0.000687,23.398331,0    c-0.05127,0-0.101561,0.001-0.15283,0.00293L23.072161,0c-6.310913-0.003713-11.429928,5.109283-11.43364,11.420196    c-0.000805,1.368727,0.244302,2.726465,0.72364,4.008514h-0.03174c-2.463093,0.008237-4.821259,0.998149-6.55221,2.750489    c-3.7998,3.679691-5.68896,10.599121-5.77636,21.152802C-0.0836,49.667,2.79921,55.808998,8.571671,57.60788    c4.070311,3.143551,9.084,2.05127,11.56592,1.509281l0.55468-0.119141c2.560452-0.52227,5.029343-1.4212,7.32618-2.66748    c0.828295,0.222847,1.67312,0.378941,2.52636,0.466789c-0.093784,0.623699-0.140463,1.253574-0.139641,1.884281    c-0.13262,7.341461,5.711302,13.400398,13.052763,13.53302c0.082016,0.00148,0.16404,0.002205,0.246067,0.002167    c0.415001-0.000488,0.834999-0.019531,1.25684-0.05909c7.330112-0.700447,12.704517-7.210503,12.00407-14.540611    c-0.094612-0.99012-0.299721-1.966545-0.6115-2.911045c1.802128-0.432137,3.555378-1.04731,5.232422-1.83593    c3.942268,2.51104,9.173714,1.350796,11.684753-2.591476c1.840042-2.888828,1.757477-6.60191-0.209167-9.406086    c-0.174988-0.246422-0.363297-0.483109-0.564087-0.709C74.955338,38.219669,77.170792,34.621578,77.770401,28.023001z"/><path class="st2" d="M54.565601,41.748001c8.126579-5.772148,10.708858,1.974678,9.493671,4.784809    c-0.882488,2.040749-5.240509,4.101269-9.26582,4.93671S41.27446,55.266998,41.426361,36.887272    s6.075951-20.499001,8.961998-20.43038c3.462849,0.08234,7.11174,4.099699,6.151901,13.898729    C55.763432,38.28656,54.565601,41.748001,54.565601,41.748001z"/><path class="st2" d="M69.68,14.25436c-2.838142,0-6.319611,1.4632-7.8508,13.451771    C60.462139,38.40992,64.667381,38.862,65.754631,38.862s7.467003,0.549129,8.530296-11.155819S73.885269,14.25436,69.68,14.25436z    "/><circle class="st2" cx="66.120369" cy="45.735371" r="4.97468"/><path class="st2" d="M30.006451,18.963221c5.89476-1.08481,15.645569,3.56962,16.480999,15.189871    s-6,17.924049-12.455688,19.06329C28.207001,54.244289,19.836,50.74408,18.53809,38.40992    C17.4748,28.305,21.348221,20.556589,30.006451,18.963221z"/><path class="st2" d="M32.041,27.790489c0.802818-0.546499,2.28772,1.539591,2.688,6.921249s-0.407848,8.355-1.288239,8.930832    c-0.794361,0.5196-2.057079-1.041512-2.53978-6.750771C30.50555,32.214409,30.86187,28.593201,32.041,27.790489z"/><path class="st2" d="M19.753281,45.8493c8.126591-5.77216,10.70886,1.974682,9.493671,4.784809    c-0.882481,2.040741-5.240499,4.101261-9.26582,4.936699S6.46214,59.368279,6.614,40.988541s6.076001-20.499001,8.962-20.43038    c3.462841,0.082331,7.97468,3.56962,6.151899,13.898729C20.34309,42.304531,19.753281,45.8493,19.753281,45.8493z"/><path class="st3" d="M51.45277,40.120338c8.126579-5.772148,10.708858,1.974689,9.493671,4.784809    c-0.882488,2.040749-5.240509,4.101269-9.265831,4.93671S38.16161,53.639328,38.31353,35.259579    s6.075939-20.499001,8.961998-20.43038c3.462849,0.08234,7.11174,4.09971,6.151901,13.898741    C52.6506,36.658878,51.45277,40.120338,51.45277,40.120338z"/><path class="st3" d="M66.5672,12.62667c-2.838139,0-6.319618,1.4632-7.8508,13.451779    c-1.367088,10.703781,2.838139,11.155819,3.9254,11.155819s7.467003,0.549122,8.530304-11.155819    S70.77243,12.62667,66.5672,12.62667z"/><circle class="st3" cx="63.007542" cy="44.107681" r="4.97468"/><circle class="st2" cx="43.713711" cy="58.903118" r="9.812969"/><path class="st3" d="M26.89362,17.335529c5.89476-1.08481,15.645569,3.56962,16.480999,15.18988s-6,17.924049-12.4557,19.06329    c-5.824791,1.027901-14.19581-2.472301-15.49367-14.806469C14.362,26.677299,18.23539,18.928909,26.89362,17.335529z"/><path class="st2" d="M28.928209,26.162809c0.80282-0.546499,2.28771,1.539579,2.688,6.921251s-0.407848,8.354939-1.28821,8.93082    c-0.794359,0.5196-2.057079-1.0415-2.539789-6.750771C27.392719,30.58672,27.749001,26.965509,28.928209,26.162809z"/><circle class="st4" cx="43.53236" cy="58.732521" r="9.630972"/><path class="st3" d="M16.64045,44.221611c8.126579-5.772148,10.70886,1.974678,9.493671,4.784809    c-0.882481,2.040749-5.240499,4.101261-9.26582,4.93671S3.34931,57.740601,3.50121,39.360851s6.07595-20.499001,8.962-20.43038    c3.46284,0.08234,7.974679,3.56962,6.1519,13.898729C17.230261,40.676842,16.64045,44.221611,16.64045,44.221611z"/><circle class="st2" cx="23.39789" cy="11.59082" r="8.09079"/><circle class="st4" cx="23.071659" cy="11.4333" r="7.93326"/><path class="st5" d="M27.654869,11.74835c0,0-0.5362,4.296999-3.434219,4.84763c-3.79747,0.72151-4.7647-3.78321-4.7647-3.78321    L27.654869,11.74835z"/><polyline class="st6" points="18.259001,8.28 21.347,8.621 18.941999,10.482   "/><polyline class="st6" points="26.271,6.912 23.993,8.28 26.917,9.191   "/><path class="st5" d="M48.852402,61.440609c0,0-3.41156,3.859081-6.64658,2.843792    c-4.239059-1.33041-3.138119-6.557739-3.138119-6.557739L48.852402,61.440609z"/><polyline class="st6" points="40.68,52.622002 44.132,54.993999 40.176998,55.224998   "/><polyline class="st6" points="49.540001,55.587002 45.782001,55.494999 48.957001,58.245998   "/><path class="st7" d="M6.61217,29.367531c-0.600969,2.42625-0.912276,4.915173-0.92741,7.4147    c-0.11393,9.755829,1.31012,13.116589,3.30379,14.483681c1.225295,0.75668,2.672044,1.072773,4.101271,0.896069"/><path class="st7" d="M10.81134,21.41781c-0.48947,0.16316-1.654,1.4487-2.74984,3.809191"/><path class="st7" d="M46.55706,17.18277c-1.910278,0.304661-3.847,2.886509-4.402618,5.772999"/><path class="st7" d="M66.634117,14.63933c-3.284809,0.18831-4.955688,4.30488-5.696201,10.293161    s-0.227852,9.47266,1.025318,10.156208"/><path class="st7" d="M62.45681,41.14566c-1.169357,0.117386-2.128788,0.977066-2.373322,2.126579    c-0.322781,1.23418,0.208858,3.227852,1.613918,3.512661"/><path class="st7" d="M30.006451,19.36656c3.974152,0.50403,7.395241,3.049889,9.019341,6.711889"/><path class="st7" d="M35.399948,47.06971c2.853867-2.045933,4.736359-5.179405,5.20253-8.65979"/></g></g></svg>